<?xml version="1.0" encoding="utf-8"?>
<!-- Generator: Adobe Illustrator 22.1.0, SVG Export Plug-In . SVG Version: 6.00 Build 0)  -->
<svg version="1.1" id="Layer_1" xmlns="http://www.w3.org/2000/svg" xmlns:xlink="http://www.w3.org/1999/xlink" x="0px" y="0px"
	 viewBox="0 0 500 500" style="enable-background:new 0 0 500 500;" xml:space="preserve">
<style type="text/css">
	.st0{fill:#C86528;}
	.st1{fill:#985323;}
</style>
<g>
	<path class="st0" d="M97.2,210.7c0.3,0.1,0.6,0.2,1,0.3c0.2,0,0.3,0.1,0.4,0.1c0.3,0.1,0.4,0.1,0.7,0.2c0.2,0,0.3,0.1,0.4,0.1
		c0.2,0.1,0.4,0.1,0.6,0.1c0.2,0,0.3,0.1,0.4,0.1s0.3,0.1,0.6,0.1c0.1,0,0.3,0,0.3,0.1c0.2,0,0.3,0,0.6,0.1c0.1,0,0.2,0,0.3,0
		c0.3,0,0.5,0,0.8,0c1.3,0,2.4-0.3,3.5-0.6c0.8-0.3,1.7-0.7,2.6-1.1l0.7-0.3c1.3-0.6,2.8-0.9,4.5-0.9c3.9,0,8.5,1.7,10.6,3.9
		c1.2,1.2,1.4,2.4,1.3,3.1c0,1,3.6,3.8,7.9,3.8c1.2,0,2.3-0.3,3.1-0.7c1.4-0.8,2.7-1.1,3.8-1.1c2.2,0,3.7,1.2,5.3,2.4
		c1.5,1.1,3.2,2.4,5.9,3.4l14.1,5c0.2-0.6,0.3-1.2,0.5-1.8c0.1-0.4,0.3-0.9,0.3-1.3c0.4-1.4,0.9-2.9,1.4-4.3v-0.1
		c0.5-1.4,1-2.7,1.6-4.1c0.2-0.4,0.3-0.9,0.5-1.3c0.3-0.5,0.4-1.1,0.7-1.7l-14.1-5c-2.8-1-4.9-1-6.8-1c-3.1-0.1-6-0.2-8-4.8
		c-1.4-3.4-5.9-4.9-8.6-4.9c-1.3,0-1.8,0.3-1.9,0.4c-0.5,0.8-1.7,1.7-4.1,1.7c-2.1,0-4.7-0.7-7.1-2c-2.4-1.3-4.5-3.1-5.5-5.2
		l-0.3-0.7c-0.1-0.3-0.3-0.5-0.3-0.7c0-0.1-0.1-0.1-0.1-0.2c-0.1-0.2-0.2-0.3-0.3-0.5c0-0.1-0.1-0.2-0.1-0.2
		c-0.1-0.2-0.2-0.3-0.3-0.4c0-0.1-0.1-0.2-0.1-0.3c-0.1-0.1-0.2-0.3-0.3-0.3c-0.1-0.1-0.1-0.2-0.2-0.3c-0.1-0.1-0.2-0.3-0.3-0.3
		c-0.1-0.1-0.1-0.2-0.2-0.3c-0.1-0.1-0.2-0.3-0.3-0.3c-0.1-0.1-0.1-0.2-0.2-0.3c-0.1-0.1-0.2-0.2-0.3-0.3c-0.1-0.1-0.2-0.2-0.3-0.3
		c-0.1-0.1-0.2-0.2-0.3-0.3c-0.1-0.1-0.2-0.2-0.3-0.3c-0.1-0.1-0.3-0.2-0.3-0.3c-0.1-0.1-0.2-0.2-0.3-0.3c-0.2-0.1-0.3-0.2-0.4-0.3
		c-0.1-0.1-0.2-0.2-0.3-0.2c-0.2-0.1-0.3-0.2-0.5-0.3c-0.1-0.1-0.3-0.2-0.3-0.2c-0.2-0.1-0.3-0.2-0.6-0.3c-0.1-0.1-0.3-0.2-0.3-0.2
		c-0.2-0.1-0.4-0.3-0.7-0.3c-0.2-0.1-0.3-0.1-0.4-0.2c-0.3-0.1-0.6-0.3-0.9-0.3c-0.1-0.1-0.3-0.1-0.3-0.2c-0.4-0.2-0.9-0.3-1.4-0.6
		c-0.2,0.3-0.3,0.8-0.5,1.1c-0.2,0.5-0.4,1-0.6,1.5c-0.3,0.7-0.6,1.4-0.9,2.1c-0.2,0.4-0.3,0.9-0.6,1.4c-0.3,0.8-0.6,1.6-1,2.4
		c-0.2,0.3-0.3,0.7-0.4,1c-0.9,2.4-1.7,4.7-2.5,7.1c-0.1,0.3-0.2,0.7-0.3,1c-0.3,0.9-0.5,1.7-0.8,2.5c-0.1,0.4-0.3,0.9-0.3,1.3
		c-0.3,0.8-0.4,1.6-0.7,2.4c-0.1,0.4-0.3,0.9-0.3,1.4c-0.1,0.4-0.3,0.9-0.3,1.3c0.4,0.1,0.8,0.3,1.1,0.3
		C97,210.6,97.1,210.6,97.2,210.7z"/>
	<path class="st0" d="M404.2,281.8L404.2,281.8c-0.7-0.1-1.2-0.3-1.7-0.3c-0.1,0-0.2,0-0.3-0.1c-0.5-0.1-1-0.2-1.4-0.2
		c-0.1,0-0.2,0-0.3,0c-0.4,0-0.9-0.1-1.3-0.1c-0.7,0-1.3,0.1-1.8,0.2c-1.7,0.3-3,1-4.8,2l-0.7,0.3c-1.4,0.8-3.1,1.1-5.2,1.1
		c-3.8,0-8.1-1.5-10.2-3.6c-1.1-1.1-1.4-2.3-1.4-3c-0.1-1-3.6-3.5-7.6-3.5c-1.4,0-2.5,0.3-3.6,0.9c-1.5,0.9-2.8,1.3-4.1,1.3
		c-2,0-3.6-1-5.2-2.2c-1.6-1-3.3-2.3-6.1-3.1l-14.2-4.3c-0.1,0.6-0.3,1.2-0.4,1.8c-0.1,0.4-0.2,0.9-0.3,1.3
		c-0.7,2.9-1.6,5.8-2.5,8.6c-0.2,0.4-0.3,0.9-0.4,1.2c-0.3,0.6-0.4,1.2-0.7,1.7l14.2,4.3c3,0.9,5.1,0.8,6.8,0.8c0.4,0,0.8,0,1.1,0
		c3.1,0,5.3,0.7,7.1,4.4c1.4,2.9,5.4,4.5,8.4,4.5c1.4,0,2-0.3,2.3-0.4c0,0,0.1,0,0.1-0.1c0.5-0.9,1.7-1.9,4.5-1.9
		c4.3,0,10.3,2.6,12.5,6.6l0.3,0.7c0.3,0.5,0.5,1,0.8,1.4c0,0.1,0.1,0.1,0.1,0.2c0.1,0.2,0.2,0.3,0.3,0.5c0,0.1,0.1,0.1,0.1,0.2
		c0.1,0.2,0.2,0.3,0.3,0.4c0.1,0.1,0.1,0.2,0.2,0.2c0.1,0.1,0.2,0.3,0.3,0.3c0.1,0.1,0.1,0.2,0.2,0.2c0.1,0.1,0.2,0.3,0.3,0.3
		c0.1,0.1,0.1,0.2,0.2,0.2c0.1,0.1,0.2,0.2,0.3,0.3c0.1,0.1,0.2,0.2,0.3,0.2c0.1,0.1,0.3,0.2,0.3,0.3c0.1,0.1,0.2,0.2,0.3,0.2
		c0.1,0.1,0.3,0.2,0.3,0.3c0.1,0.1,0.2,0.2,0.3,0.2c0.2,0.1,0.3,0.2,0.4,0.3c0.1,0.1,0.2,0.2,0.3,0.2c0.2,0.1,0.3,0.2,0.5,0.3
		c0.1,0.1,0.3,0.1,0.3,0.2c0.2,0.1,0.3,0.2,0.6,0.3c0.2,0.1,0.3,0.1,0.4,0.2c0.3,0.1,0.4,0.2,0.7,0.3c0.2,0.1,0.3,0.1,0.4,0.2
		c0.3,0.1,0.5,0.2,0.9,0.3c0.2,0.1,0.3,0.1,0.4,0.2c0.3,0.2,0.8,0.3,1.2,0.4c0.1,0,0.2,0.1,0.3,0.1l0,0c0.2-0.4,0.3-0.8,0.5-1.2
		c0.2-0.4,0.3-1,0.5-1.4c0.3-0.7,0.5-1.4,0.8-2.1c0.2-0.4,0.3-1,0.5-1.4c0.3-0.8,0.5-1.5,0.8-2.3c0.2-0.4,0.3-0.9,0.4-1.3
		c0.3-1,0.7-2.2,1-3.2c0.1-0.2,0.1-0.4,0.2-0.6c0.3-1.1,0.6-2.2,1-3.3c0.1-0.4,0.3-0.9,0.3-1.3c0.2-0.8,0.4-1.6,0.6-2.4
		c0.1-0.5,0.3-1,0.3-1.5c0.2-0.7,0.3-1.5,0.5-2.2c0.1-0.5,0.3-1,0.3-1.6c0.1-0.4,0.2-0.8,0.3-1.2h-0.1
		C405.4,282.1,404.8,281.9,404.2,281.8z"/>
	<path class="st0" d="M473.5,306.4l-2-0.5c-2.5-0.6-5.2-1-8.6-1c-1.5,0-3,0.1-4.4,0.1c-1.4,0.1-2.6,0.1-3.9,0.1
		c-4,0-8.1-0.4-11.4-3.7c-3.9-4-6.5-4.7-9.2-5.4c-1-0.3-2.1-0.6-3.2-1c-1.2-0.5-2.5-1.3-4.2-2.4c-0.2,0.8-0.4,1.7-0.6,2.4
		c-0.2,0.6-0.3,1.1-0.4,1.7c-0.5,1.9-1,3.8-1.6,5.7c0,0,0,0,0,0.1c-0.5,1.8-1.1,3.7-1.7,5.5c-0.2,0.6-0.4,1.1-0.6,1.7
		c-0.3,0.8-0.5,1.6-0.8,2.3c0.3,0,0.5,0,0.8,0c1.8,0,3.1,0.1,4,0.3c1.2,0.3,2.3,0.6,3.3,1c1.7,0.6,3.4,1.1,5.9,1.1
		c1.5,0,3.1-0.2,4.9-0.6c0.8-0.2,1.5-0.3,2.3-0.3c4.5,0,8.3,2.8,12.4,5.7c3.4,2.4,6.9,5,11.3,6.5l2,0.7c4.6,1.6,9.4,3.2,13.3,3.2
		l0,0c3.1,0,6.7-0.9,8.7-7.4c1-3.3,1-5.9-0.3-8C486.9,309.9,480.1,308.1,473.5,306.4z"/>
	<path class="st0" d="M356.2,367c-0.1-0.2-0.3-0.3-0.3-0.3c-0.2-0.2-0.3-0.4-0.5-0.6c-0.1-0.1-0.3-0.3-0.3-0.3
		c-0.2-0.2-0.3-0.3-0.5-0.5c-0.1-0.1-0.3-0.3-0.3-0.3c-0.2-0.2-0.3-0.3-0.4-0.4c-0.1-0.1-0.3-0.2-0.3-0.3c-0.2-0.1-0.3-0.3-0.4-0.3
		c-0.1-0.1-0.2-0.2-0.3-0.3c-0.2-0.1-0.3-0.2-0.3-0.3c-0.1-0.1-0.2-0.2-0.3-0.2c-0.1-0.1-0.3-0.2-0.3-0.3c-0.1-0.1-0.2-0.1-0.3-0.2
		c-0.1-0.1-0.3-0.2-0.3-0.2c-0.1-0.1-0.2-0.1-0.3-0.2c-0.1-0.1-0.3-0.1-0.3-0.2c-0.1,0-0.2-0.1-0.3-0.1c-0.1-0.1-0.3-0.1-0.3-0.2
		c-0.1,0-0.2-0.1-0.3-0.1c-0.1,0-0.3-0.1-0.3-0.1s-0.2-0.1-0.3-0.1c-0.2,0-0.3-0.1-0.4-0.1c-0.1,0-0.2,0-0.3-0.1
		c-0.2,0-0.3-0.1-0.4-0.1c-0.1,0-0.2,0-0.3-0.1c-0.2,0-0.3-0.1-0.5-0.1c-0.1,0-0.2,0-0.3,0c-0.3,0-0.5-0.1-0.8-0.1L345,361
		c-4.5-0.6-8.7-5.1-10.4-9c-0.2-0.3-0.3-0.8-0.3-1.1c-0.6-2.1-0.1-3.4,0.4-4.2c0.2-0.2,0.2-1.4-0.8-3.3c-1.1-2.3-3.6-5.1-6.7-5.3
		c-5-0.4-5.9-3.2-7-6.1c-0.6-1.8-1.3-3.8-3.1-6.2l-9-11.9c-0.4,0.4-1,0.8-1.4,1.2c-0.3,0.3-0.7,0.6-1,0.9c-2.3,1.9-4.6,3.7-7.1,5.4
		c-0.3,0.3-0.8,0.5-1.1,0.8c-0.5,0.3-1,0.7-1.6,1l9,11.9c1.7,2.4,3.5,3.6,5.1,4.6c2.5,1.7,5,3.4,4,8.4c-0.2,0.8-0.1,1.5,0,2.2
		c0,0.1,0.1,0.3,0.1,0.3c0.1,0.3,0.1,0.4,0.2,0.7c0.1,0.2,0.2,0.4,0.3,0.6c0,0.1,0.1,0.2,0.1,0.3c0.1,0.3,0.3,0.5,0.4,0.8l0,0
		c0.2,0.3,0.3,0.4,0.4,0.7l0,0c0.1,0.2,0.3,0.3,0.3,0.5c0,0,0,0.1,0.1,0.1c0,0.1,0.1,0.1,0.1,0.2c0.1,0.1,0.2,0.3,0.3,0.3
		c0.2,0.3,0.4,0.4,0.6,0.7c1.4,1.5,2.8,2.1,3.4,2.1c0.5-0.2,0.9-0.3,1.4-0.3c2.4,0,4.5,2.1,5.7,3.4c2.2,2.4,4.5,6.7,3.9,10.7
		l-0.1,0.7c0,0.3-0.1,0.5-0.1,0.8c0,0.1,0,0.2,0,0.3c0,0.2,0,0.3-0.1,0.5c0,0.1,0,0.2,0,0.3c0,0.2,0,0.3,0,0.4c0,0.1,0,0.2,0,0.3
		c0,0.2,0,0.3,0,0.4c0,0.1,0,0.2,0,0.3c0,0.1,0,0.3,0,0.3s0,0.2,0,0.3c0,0.1,0,0.3,0,0.3c0,0.1,0,0.2,0,0.3c0,0.1,0,0.3,0.1,0.3
		c0,0.1,0,0.3,0.1,0.3c0,0.2,0.1,0.3,0.1,0.4c0,0.1,0.1,0.3,0.1,0.3c0,0.2,0.1,0.3,0.2,0.4c0,0.1,0.1,0.3,0.1,0.3
		c0.1,0.2,0.1,0.3,0.2,0.4c0.1,0.1,0.1,0.3,0.2,0.3c0.1,0.2,0.2,0.3,0.3,0.5c0.1,0.2,0.1,0.3,0.2,0.4c0.1,0.2,0.2,0.3,0.3,0.5
		c0.1,0.2,0.2,0.3,0.3,0.4c0.1,0.2,0.3,0.4,0.3,0.6c0.1,0.2,0.2,0.3,0.3,0.4c0.2,0.3,0.3,0.5,0.5,0.8c0.1,0.1,0.2,0.3,0.3,0.3
		c0.3,0.4,0.5,0.8,0.9,1.2c0.3-0.3,0.7-0.4,1.1-0.7c0.4-0.3,0.9-0.5,1.2-0.8c0.6-0.4,1.3-0.9,1.9-1.3c0.4-0.3,0.8-0.5,1.2-0.8
		c0.7-0.4,1.4-1,2-1.4c0.3-0.3,0.7-0.4,1-0.7c1-0.7,2-1.5,3-2.2l0,0c1-0.8,2-1.5,3-2.3c0.3-0.3,0.6-0.5,1-0.8c0.7-0.5,1.3-1,2-1.7
		c0.3-0.3,0.7-0.6,1-1c0.6-0.5,1.2-1,1.7-1.6c0.3-0.3,0.8-0.7,1.1-1c0.3-0.3,0.6-0.6,1-0.9c-0.1-0.1-0.2-0.2-0.3-0.3
		C356.6,367.6,356.3,367.3,356.2,367z"/>
	<path class="st0" d="M173,380.9c0-0.2,0.1-0.3,0.1-0.4c0-0.1,0.1-0.3,0.1-0.3c0-0.2,0.1-0.3,0.1-0.4c0-0.1,0-0.3,0.1-0.3
		c0-0.2,0-0.3,0.1-0.3c0-0.1,0-0.2,0-0.3c0-0.2,0-0.3,0-0.4c0-0.1,0-0.2,0-0.3c0-0.2,0-0.3,0-0.4c0-0.1,0-0.2,0-0.3
		c0-0.2,0-0.3,0-0.4c0-0.1,0-0.2,0-0.3c0-0.2,0-0.3-0.1-0.5c0-0.1,0-0.2,0-0.3c0-0.2-0.1-0.4-0.1-0.6c0-0.1,0-0.1,0-0.2
		c0-0.3-0.1-0.5-0.2-0.8l-0.1-0.7c-0.1-0.8-0.2-1.5-0.1-2.3c0.3-3.3,2.1-6.6,3.8-8.6c1-1.1,2.7-2.9,4.6-3.2c0.3-0.1,0.6-0.1,0.9-0.1
		c0.4,0,0.8,0.1,1.2,0.2l0,0c0.6,0,1.9-0.6,3.3-2.1c0.2-0.2,0.3-0.4,0.6-0.7c0.2-0.3,0.3-0.4,0.5-0.7c0-0.1,0.1-0.1,0.1-0.2
		c0.1-0.1,0.1-0.2,0.2-0.3c0.5-0.8,0.9-1.6,1.1-2.4l0,0c0.1-0.3,0.2-0.6,0.2-0.9c0-0.2,0.1-0.3,0.1-0.5c0.1-0.4,0.1-0.8,0.1-1.2
		c0-0.3-0.1-0.5-0.1-0.8c-1-4.9,1.3-6.6,3.8-8.5c1.5-1.1,3.2-2.4,5-4.8l8.6-12.1c-0.5-0.3-1-0.7-1.6-1c-0.4-0.3-0.8-0.5-1.2-0.7
		c-1.2-0.8-2.4-1.6-3.7-2.4l-0.1-0.1c-1.2-0.9-2.4-1.7-3.5-2.6c-0.3-0.3-0.7-0.6-1-0.9c-0.5-0.4-1-0.8-1.5-1.2l-8.6,12.1
		c-1.7,2.4-2.4,4.5-2.9,6.3c-1,3-1.8,5.8-6.8,6.4c-3.1,0.3-5.4,3.2-6.6,5.5c-0.9,1.9-0.8,3.1-0.7,3.4c0.7,0.9,1.3,2.4,0.3,5.2
		c-1.5,4-5.8,8.6-10.1,9.3l-0.8,0.1c-0.3,0-0.5,0.1-0.8,0.1c-0.1,0-0.3,0-0.3,0.1c-0.2,0-0.3,0.1-0.4,0.1c-0.1,0-0.3,0.1-0.3,0.1
		c-0.1,0-0.3,0.1-0.3,0.1c-0.1,0-0.3,0.1-0.3,0.1c-0.1,0-0.3,0.1-0.3,0.1c-0.1,0-0.2,0.1-0.3,0.1c-0.1,0-0.3,0.1-0.3,0.1
		c-0.1,0-0.2,0.1-0.3,0.1c-0.1,0-0.3,0.1-0.3,0.2c-0.1,0-0.2,0.1-0.3,0.2c-0.1,0.1-0.3,0.1-0.3,0.2s-0.2,0.1-0.3,0.2
		c-0.1,0.1-0.3,0.1-0.3,0.2s-0.2,0.1-0.3,0.2c-0.1,0.1-0.3,0.2-0.3,0.3c-0.1,0.1-0.2,0.2-0.3,0.3c-0.1,0.1-0.3,0.2-0.3,0.3
		c-0.1,0.1-0.2,0.2-0.3,0.3c-0.2,0.1-0.3,0.3-0.4,0.3c-0.1,0.1-0.2,0.2-0.3,0.3c-0.2,0.2-0.3,0.3-0.4,0.4c-0.1,0.1-0.2,0.2-0.3,0.3
		c-0.2,0.2-0.3,0.3-0.5,0.5c-0.1,0.1-0.2,0.3-0.3,0.3c-0.2,0.3-0.3,0.4-0.6,0.7c-0.1,0.1-0.2,0.2-0.3,0.3c-0.3,0.3-0.6,0.7-0.9,1.1
		c0,0,0,0,0,0.1l0,0c0.2,0.2,0.3,0.3,0.4,0.4c1.6,1.3,3.1,2.6,4.7,3.8c0.3,0.2,0.4,0.3,0.7,0.5c1.7,1.3,3.4,2.6,5.2,3.8
		c0,0,0,0,0.1,0c1.7,1.2,3.5,2.4,5.3,3.7c0.3,0.2,0.4,0.3,0.7,0.4c1.7,1.1,3.5,2.2,5.2,3.2c0.2,0.1,0.3,0.2,0.5,0.3
		c0.2-0.2,0.3-0.4,0.4-0.6c0.2-0.2,0.3-0.4,0.4-0.6c0.1-0.2,0.3-0.4,0.3-0.6c0.1-0.2,0.3-0.3,0.3-0.5s0.2-0.3,0.3-0.5
		c0.1-0.2,0.2-0.3,0.3-0.5c0.1-0.2,0.2-0.3,0.3-0.5c0.1-0.2,0.2-0.3,0.3-0.5c0.1-0.2,0.2-0.3,0.2-0.4c0.1-0.2,0.2-0.3,0.2-0.4
		c0.1-0.2,0.1-0.3,0.2-0.4c0.1-0.2,0.1-0.3,0.2-0.4C172.9,381.2,172.9,381.1,173,380.9z"/>
	<path class="st0" d="M103.8,308.1c0.3-0.1,0.5-0.2,0.8-0.3c0.2-0.1,0.3-0.1,0.4-0.2c0.3-0.1,0.4-0.2,0.7-0.3
		c0.2-0.1,0.3-0.2,0.4-0.2c0.2-0.1,0.3-0.2,0.5-0.3c0.2-0.1,0.3-0.2,0.4-0.2c0.2-0.1,0.3-0.2,0.4-0.3c0.1-0.1,0.3-0.2,0.3-0.2
		c0.2-0.1,0.3-0.2,0.4-0.3c0.1-0.1,0.2-0.2,0.3-0.3c0.1-0.1,0.3-0.2,0.3-0.3c0.1-0.1,0.2-0.2,0.3-0.3c0.1-0.1,0.2-0.2,0.3-0.3
		c0.1-0.1,0.2-0.2,0.3-0.3c0.1-0.1,0.2-0.2,0.3-0.3c0.1-0.1,0.2-0.2,0.3-0.3c0.1-0.1,0.2-0.2,0.3-0.3c0.1-0.1,0.2-0.2,0.2-0.3
		c0.1-0.1,0.2-0.2,0.3-0.3c0.1-0.1,0.1-0.2,0.2-0.3c0.1-0.1,0.2-0.2,0.2-0.3c0.1-0.1,0.1-0.2,0.2-0.3c0.1-0.1,0.2-0.3,0.2-0.3
		c0.1-0.1,0.1-0.2,0.2-0.3c0.1-0.1,0.2-0.3,0.3-0.4c0.1-0.1,0.1-0.2,0.2-0.3c0.1-0.3,0.3-0.4,0.3-0.7l0.3-0.7
		c2.2-4.1,8.2-6.6,12.4-6.6c2.7,0,3.9,1,4.5,1.9c0.1,0.2,0.9,0.5,2.4,0.5c2.7,0,6-1.1,7.8-3.4c0.3-0.3,0.4-0.7,0.6-1
		c1.9-4,4.6-4.4,7-4.4c0.3,0,0.8,0,1.2,0s0.9,0,1.4,0c1.4,0,3.2-0.1,5.4-0.8l14.2-4.2c-0.3-0.6-0.4-1.2-0.7-1.7
		c-0.2-0.4-0.3-0.9-0.4-1.2c-0.5-1.4-1-2.8-1.4-4.2v-0.1c-0.4-1.4-0.8-2.9-1.1-4.3c-0.1-0.4-0.2-1-0.3-1.4c-0.2-0.6-0.3-1.2-0.4-1.8
		l-14.2,4.3c-2.8,0.9-4.5,2-6.1,3.1c-0.2,0.2-0.4,0.3-0.6,0.4c-1.4,1-2.8,1.7-4.5,1.7l0,0l0,0c-0.1,0-0.2,0-0.2,0
		c-1.2,0-2.4-0.4-3.9-1.3c-1-0.6-2.2-0.9-3.6-0.9c-4.2,0-7.5,2.6-7.5,3.5c0,0.7-0.3,1.8-1.4,3c-1.7,1.8-5.2,3.1-8.7,3.5
		c-0.5,0.1-1,0.1-1.5,0.1c-2,0-3.8-0.4-5.2-1.1l-0.7-0.3c-2.4-1.3-3.9-2.2-6.6-2.2c-0.4,0-0.9,0-1.3,0.1c-0.1,0-0.2,0-0.3,0
		c-0.4,0-0.9,0.1-1.4,0.2c-0.1,0-0.2,0-0.3,0.1c-0.5,0.1-1,0.2-1.7,0.3h-0.1c-0.6,0.1-1.2,0.3-1.8,0.4h-0.1c0.1,0.4,0.2,0.9,0.3,1.3
		c0.1,0.4,0.2,1,0.3,1.4c0.2,0.8,0.3,1.6,0.5,2.3c0.1,0.4,0.2,0.9,0.3,1.4c0.2,0.9,0.4,1.7,0.6,2.5c0.1,0.3,0.2,0.8,0.3,1.1
		c0.6,2.4,1.4,4.8,2.1,7.2c0.1,0.3,0.3,0.8,0.3,1.1c0.3,0.8,0.5,1.7,0.8,2.4c0.2,0.4,0.3,0.9,0.4,1.3c0.3,0.7,0.5,1.5,0.8,2.2
		c0.2,0.4,0.3,0.9,0.5,1.4c0.2,0.4,0.3,0.8,0.5,1.2l0,0c0.1,0,0.2-0.1,0.2-0.1c0.4-0.2,0.8-0.3,1.2-0.4
		C103.5,308.2,103.7,308.1,103.8,308.1z"/>
	<path class="st0" d="M262.1,407.5c0-0.2,0-0.3,0-0.5c0-0.3,0-0.5-0.1-0.8c0-0.2,0-0.3-0.1-0.5c0-0.3-0.1-0.4-0.1-0.7
		c0-0.2,0-0.3-0.1-0.4c0-0.2-0.1-0.4-0.1-0.6s-0.1-0.3-0.1-0.4s-0.1-0.3-0.1-0.5c0-0.2-0.1-0.3-0.1-0.3c0-0.2-0.1-0.3-0.1-0.4
		c0-0.1-0.1-0.3-0.1-0.3c-0.1-0.2-0.1-0.3-0.2-0.4c0-0.1-0.1-0.2-0.1-0.3c-0.1-0.2-0.1-0.3-0.2-0.3c-0.1-0.1-0.1-0.2-0.2-0.3
		c-0.1-0.1-0.1-0.3-0.2-0.3s-0.1-0.2-0.2-0.3c-0.1-0.1-0.2-0.3-0.2-0.3c-0.1-0.1-0.1-0.2-0.2-0.3c-0.1-0.1-0.2-0.3-0.3-0.3
		c-0.1-0.1-0.1-0.2-0.2-0.3c-0.1-0.1-0.2-0.3-0.3-0.3c-0.1-0.1-0.1-0.2-0.2-0.2c-0.1-0.1-0.2-0.3-0.3-0.3c-0.1-0.1-0.1-0.1-0.2-0.2
		c-0.1-0.2-0.3-0.3-0.4-0.4c0-0.1-0.1-0.1-0.1-0.1c-0.2-0.2-0.3-0.3-0.5-0.5l-0.5-0.5c-0.8-0.8-1.4-1.7-1.9-2.9
		c-0.9-1.9-1.3-4.1-1.3-6.3c0-1.6,0.2-3.1,0.5-4.3c0.6-2.2,1.6-3.2,2.4-3.8c0.3-0.2,0.6-0.3,0.9-0.3s1-1,1.5-3.1
		c0.5-2.5,0.3-6.2-2-8.3c-3.7-3.4-2.7-6.2-1.7-9.1c0.6-1.8,1.3-3.8,1.3-6.7l0.2-14.9c-0.4,0-0.9,0.1-1.3,0.1c-0.5,0-1.1,0.1-1.7,0.1
		c-0.8,0-1.7,0.1-2.4,0.1c-0.3,0-0.8,0-1.1,0c-0.3,0-0.4,0-0.7,0s-0.5,0-0.8,0c-1,0-2-0.1-3-0.1c-0.2,0-0.3,0-0.5,0
		c-1.1-0.1-2.4-0.2-3.5-0.3c-0.1,0-0.2,0-0.3,0l-0.2,14.9c0,3,0.6,5,1.1,6.8c0.1,0.2,0.1,0.3,0.2,0.5c0.3,1.1,0.6,2.2,0.6,3.3
		c0,1.7-0.6,3.3-2.8,5.2c-2.4,2.1-2.7,5.8-2.3,8.2c0.3,2.1,1.1,3.1,1.4,3.1c1,0.3,2.4,1.3,3.1,4.2c1,4.1,0.2,10.3-3.1,13.4l-0.5,0.5
		c-0.2,0.2-0.3,0.3-0.6,0.5c-0.1,0.1-0.1,0.1-0.2,0.2c-0.2,0.2-0.3,0.3-0.4,0.4c-0.1,0.1-0.1,0.1-0.2,0.2c-0.1,0.1-0.2,0.3-0.3,0.3
		c-0.1,0.1-0.1,0.2-0.2,0.2c-0.1,0.1-0.2,0.2-0.3,0.3c-0.1,0.1-0.1,0.2-0.2,0.3c-0.1,0.1-0.2,0.2-0.3,0.3c-0.1,0.1-0.1,0.2-0.2,0.3
		c-0.1,0.1-0.2,0.2-0.3,0.3c-0.1,0.1-0.1,0.2-0.2,0.3c-0.1,0.1-0.2,0.3-0.2,0.3c-0.1,0.1-0.1,0.2-0.2,0.3c-0.1,0.1-0.1,0.3-0.2,0.3
		c-0.1,0.1-0.1,0.2-0.2,0.3c-0.1,0.2-0.1,0.3-0.2,0.4c0,0.1-0.1,0.3-0.1,0.3c-0.1,0.2-0.1,0.3-0.2,0.4c0,0.1-0.1,0.3-0.1,0.3
		c-0.1,0.2-0.1,0.3-0.1,0.5s-0.1,0.3-0.1,0.4s-0.1,0.4-0.1,0.6c0,0.2-0.1,0.3-0.1,0.4c0,0.3-0.1,0.5-0.1,0.8c0,0.2,0,0.3-0.1,0.4
		c0,0.3-0.1,0.6-0.1,1c0,0.1,0,0.3,0,0.3c0,0.4-0.1,1-0.1,1.5c0.5,0.1,1.1,0.1,1.7,0.2c0.6,0.1,1.2,0.1,1.7,0.2
		c0.9,0.1,1.7,0.1,2.6,0.2c0.5,0,1.1,0.1,1.7,0.1c1,0.1,1.9,0.1,2.9,0.1c0.4,0,0.9,0,1.4,0.1c1.4,0,2.8,0.1,4.2,0.1c1,0,2,0,3.1,0
		c0.3,0,0.7,0,1,0c0.7,0,1.4,0,2.1-0.1c0.4,0,0.9,0,1.3-0.1c0.7,0,1.3-0.1,2-0.1c0.4,0,0.9-0.1,1.4-0.1c0.3,0,0.7-0.1,1.1-0.1
		c0-0.2,0-0.3,0-0.6C262.2,408.1,262.1,407.7,262.1,407.5z"/>
	<path class="st1" d="M428,250c0-16.3-2.3-32.4-6.6-48.1c-0.5-2-1.1-4-1.8-6c0,0,0,0,0-0.1c-1.9-5.9-4.1-11.9-6.6-17.6
		c-10.7-24.4-27.2-46.4-47.6-63.7c-6.4-5.4-13.2-10.4-20.3-14.9c-24.7-15.6-53.1-25-82.4-27c-4.8-0.3-8.8-0.5-12.6-0.5
		c-3.8,0-7.8,0.2-12.6,0.5c-28.4,2-56.2,10.8-80.3,25.7c-7.2,4.4-14.1,9.3-20.4,14.6c-21.4,17.7-38.6,40.5-49.7,66
		c-3.3,7.6-6.1,15.6-8.4,23.7c-4.3,15.5-6.5,31.5-6.5,47.4c0,12.8,1.4,25.8,4.2,38.5c0.4,2,1,4.1,1.5,6.1c0.2,0.7,0.4,1.4,0.6,2.1
		c0.3,1.3,0.7,2.6,1,3.9c0.3,0.9,0.5,1.7,0.8,2.5c0.3,1.1,0.7,2.3,1,3.4c0.3,0.9,0.6,1.7,0.9,2.5c0.3,1.1,0.8,2.2,1.1,3.3
		c0.1,0.1,0.1,0.3,0.2,0.3c10.9,29,29.4,54.7,53.3,74.4l0,0c4.8,3.9,9.9,7.7,15.1,11.2c1.7,1.1,3.5,2.3,5.3,3.4
		c23.4,14.3,50.3,23.1,77.8,25.3c5.4,0.4,10.2,0.7,14.9,0.7c3.1,0,6.6-0.1,10.3-0.3c30.8-1.7,60.8-11.6,86.7-28.5
		c7-4.5,13.7-9.7,20-15.2c21.9-19.2,39-43.7,49.3-70.8c3-7.8,5.3-15.8,7.2-24C426.5,276.3,428,263.1,428,250z M410.1,281.3
		c-2,10.6-5.2,21-9.3,30.8c-8.9,21.7-22.8,41.5-40,57.5c-8,7.3-16.6,13.9-25.7,19.5c-20,12.2-42.9,20.1-66.3,22.8
		c-1.6,0.2-3.1,0.3-4.7,0.4c-5.1,0.4-9.6,0.6-14.1,0.6c-5.9,0-12.1-0.3-18.2-1c-22.2-2.4-43.3-9.3-62.7-20.5
		c-9.3-5.3-18.2-11.6-26.2-18.7c-19-16.7-34.2-37.8-43.8-61.2c-4-10-7.2-20.4-9.2-30.9c-1.9-10.2-3-20.5-3-30.8
		c0-13.1,1.6-26.3,4.7-39.1c2.5-10.5,6.2-20.7,10.7-30.4c9.6-20.4,23.2-38.3,40.2-53.2l0,0c6-5.3,12.6-10.2,19.3-14.6
		c2.3-1.5,4.5-2.9,6.9-4.2c20.1-11.5,42-18.6,65-20.9c5.4-0.5,10.8-0.8,16.1-0.8c5.3,0,10.7,0.3,16.1,0.8c23.9,2.4,46.4,9.7,67,22
		c9.3,5.5,18,11.9,25.9,19c16.1,14.5,28.9,31.7,38.2,51.2c4.6,9.7,8.3,19.9,10.9,30.3c3.2,12.9,4.9,26.3,4.9,39.7
		C413.1,260.5,412.2,271,410.1,281.3z"/>
	<path class="st0" d="M418.9,183.3c0.7,1.7,1.4,3.6,2,5.4v0.1c0.7,1.8,1.3,3.7,1.8,5.5c0.2,0.6,0.3,1.1,0.5,1.7
		c0.3,0.8,0.5,1.6,0.7,2.4c1.6-1.1,2.9-2.1,4-2.6c1.1-0.5,2.2-0.9,3.2-1.2c2.7-0.9,5.2-1.7,8.9-5.9c3.7-4.2,9.2-4.3,15-4.4
		c4.2-0.1,8.5-0.1,12.9-1.6l2-0.6c6.6-2,13.3-4.2,15.5-8.5c1-2.1,1-4.7-0.2-8c-2.3-6.2-5.7-7-8.5-7c-4,0-9,2-13.8,4l-1.9,0.8
		c-4.3,1.7-7.7,4.5-10.9,7c-4.1,3.2-8,6.4-12.7,6.4l0,0c-0.6,0-1.1-0.1-1.7-0.2c-1.5-0.3-2.8-0.3-3.9-0.3c-3,0-4.8,0.7-6.6,1.5
		c-1,0.3-2,0.8-3.2,1.1c-1.2,0.3-2.9,0.4-4.8,0.5c0.3,0.8,0.6,1.5,1,2.3C418.4,182.2,418.6,182.7,418.9,183.3z"/>
	<path class="st0" d="M352.8,100.5c1.6,1.1,3.2,2.3,4.8,3.4l0,0c1.6,1.1,3.1,2.4,4.6,3.6c0.4,0.3,1,0.8,1.4,1.1
		c0.6,0.5,1.3,1,1.9,1.6c0.6-1.8,1.2-3.3,1.8-4.5c0.6-1,1.3-1.9,2-2.8c1.7-2.2,3.3-4.4,4.1-9.9c0.7-5.5,5.2-8.6,10-12
		c3.4-2.4,7-4.9,9.9-8.5l1.3-1.7c4.3-5.3,8.7-10.8,8.1-15.6c-0.3-2.4-1.8-4.5-4.6-6.6c-2.4-1.7-4.5-2.6-6.5-2.6
		c-5.2,0-9.5,6.4-13.6,12.5l-1.2,1.7c-2.6,3.8-3.9,8-5.2,12c-1.7,5.6-3.4,10.8-8.5,13.2c-5.1,2.4-6.6,4.5-8.2,6.8
		c-0.6,0.9-1.2,1.8-2.1,2.7c-0.9,1-2.1,1.9-3.7,3.1c0.7,0.4,1.4,1,2.1,1.4C351.8,99.8,352.3,100.1,352.8,100.5z"/>
	<path class="st0" d="M146.6,129.1c0.3,0.3,0.6,0.7,0.9,1c0.1,0.1,0.2,0.3,0.3,0.3c0.2,0.3,0.3,0.4,0.5,0.7c0.1,0.1,0.2,0.3,0.3,0.3
		c0.2,0.2,0.3,0.3,0.5,0.5c0.1,0.1,0.3,0.3,0.3,0.3c0.2,0.2,0.3,0.3,0.4,0.4c0.1,0.1,0.2,0.2,0.3,0.3c0.2,0.1,0.3,0.3,0.4,0.3
		c0.1,0.1,0.2,0.2,0.3,0.3c0.1,0.1,0.3,0.2,0.3,0.3c0.1,0.1,0.2,0.2,0.3,0.3c0.1,0.1,0.3,0.2,0.3,0.3s0.2,0.1,0.3,0.2
		c0.1,0.1,0.3,0.2,0.3,0.2c0.1,0.1,0.2,0.1,0.3,0.2c0.1,0.1,0.3,0.1,0.3,0.2c0.1,0,0.2,0.1,0.3,0.1c0.1,0.1,0.3,0.1,0.3,0.2
		c0.1,0,0.2,0.1,0.3,0.1c0.1,0.1,0.3,0.1,0.3,0.1c0.1,0,0.2,0.1,0.3,0.1c0.2,0,0.3,0.1,0.4,0.1c0.1,0,0.2,0,0.3,0.1
		c0.2,0,0.3,0.1,0.5,0.1c0.1,0,0.2,0,0.3,0.1c0.2,0,0.3,0.1,0.6,0.1c0.1,0,0.1,0,0.2,0c0.3,0,0.5,0.1,0.8,0.1l0.8,0.1
		c4.4,0.7,8.6,5.3,10.1,9.3c1,2.8,0.4,4.4-0.3,5.2c-0.2,0.2-0.3,1.4,0.7,3.4c1,2.3,3.5,5.2,6.6,5.5c5,0.6,5.9,3.4,6.8,6.3
		c0.6,1.8,1.2,3.8,2.9,6.2l8.6,12.1c0.4-0.4,1-0.8,1.5-1.2c0.3-0.3,0.7-0.6,1-0.9c2.4-1.8,4.7-3.6,7.3-5.2c0.3-0.3,0.8-0.4,1.1-0.7
		c0.5-0.3,1-0.7,1.7-1l-8.6-12.1c-1.7-2.4-3.4-3.7-5-4.8c-2.4-1.8-4.8-3.6-3.8-8.5c0.4-2.1-0.3-4.7-2.2-7c-1.6-1.9-3.1-2.7-3.8-2.7
		c-0.4,0.2-0.9,0.2-1.2,0.2l0,0c-1.1,0-2.3-0.5-3.2-1.2c-1-0.7-1.7-1.5-2.3-2.2c-0.2-0.3-0.4-0.5-0.6-0.8c-1.6-2.1-3.1-5-3.3-8
		c0-0.1,0-0.1,0-0.2c0-0.2,0-0.4,0-0.6c0-0.5,0-1,0.1-1.5l0.1-0.7c0.1-0.3,0.1-0.5,0.2-0.8c0-0.1,0-0.2,0-0.2c0-0.2,0.1-0.3,0.1-0.5
		c0-0.1,0-0.2,0-0.3c0-0.2,0-0.3,0.1-0.4c0-0.1,0-0.2,0-0.3c0-0.2,0-0.3,0-0.4c0-0.1,0-0.2,0-0.3c0-0.2,0-0.3,0-0.4
		c0-0.1,0-0.2,0-0.3c0-0.1,0-0.3,0-0.3c0-0.1,0-0.2,0-0.3s0-0.3-0.1-0.4c0-0.1,0-0.3-0.1-0.3c0-0.2-0.1-0.3-0.1-0.4
		c0-0.1-0.1-0.3-0.1-0.3c0-0.2-0.1-0.3-0.1-0.4c0-0.1-0.1-0.3-0.1-0.3c-0.1-0.2-0.1-0.3-0.2-0.4c-0.1-0.1-0.1-0.3-0.2-0.3
		c-0.1-0.2-0.2-0.3-0.2-0.5c-0.1-0.2-0.1-0.3-0.2-0.4s-0.2-0.3-0.3-0.5c-0.1-0.2-0.2-0.3-0.3-0.4c-0.1-0.2-0.2-0.3-0.3-0.6
		c-0.1-0.2-0.2-0.3-0.3-0.4c-0.1-0.3-0.3-0.4-0.4-0.7c-0.1-0.2-0.2-0.3-0.3-0.4c-0.2-0.3-0.4-0.6-0.6-1c-0.1-0.1-0.1-0.2-0.2-0.3
		c-0.2,0.1-0.3,0.3-0.5,0.3c-1.7,1-3.5,2.1-5.2,3.2c-0.3,0.2-0.4,0.3-0.7,0.4c-1.8,1.2-3.6,2.4-5.3,3.7l0,0
		c-1.7,1.2-3.5,2.5-5.2,3.8c-0.3,0.2-0.4,0.3-0.7,0.5c-1.6,1.3-3.2,2.5-4.7,3.9c-0.2,0.1-0.3,0.3-0.4,0.3l0,0
		C146.5,129.1,146.5,129.1,146.6,129.1z"/>
	<path class="st0" d="M242.6,68.8c0.2,0,0.3,0,0.4,0c0.7,0,1.3-0.1,2-0.1c0.2,0,0.3,0,0.4,0c0.7,0,1.4,0,2.1-0.1c0.2,0,0.3,0,0.4,0
		c0.7,0,1.4,0,2.1,0s1.4,0,2.1,0c0.2,0,0.3,0,0.4,0c0.7,0,1.4,0,2.1,0.1c0.2,0,0.3,0,0.4,0c0.6,0,1.3,0.1,2,0.1c0.2,0,0.3,0,0.4,0
		c0.8,0,1.5,0.1,2.3,0.1c0.1,0,0.2,0,0.3,0c-0.6-1.8-1-3.4-1.1-4.7c-0.1-1.2-0.1-2.4-0.1-3.4c0.1-2.8,0.2-5.5-2.5-10.4
		c-2.7-4.9-0.9-10.1,1-15.6c1.3-3.9,2.7-8,2.9-12.7l0.1-2.1c0.3-6.8,0.6-13.9-2.7-17.4C256,0.8,253.6,0,250.1,0l0,0
		c-3.5,0-6,0.8-7.6,2.5c-3.3,3.4-3,10.5-2.7,17.4l0.1,2.1c0.2,4.6,1.6,8.7,2.9,12.7c1.9,5.5,3.7,10.7,1,15.6
		c-2.7,4.9-2.6,7.6-2.5,10.4c0,1,0.1,2.2-0.1,3.4c-0.1,1.3-0.5,2.9-1.1,4.7c0.1,0,0.2,0,0.3,0C241,68.8,241.8,68.8,242.6,68.8z"/>
	<path class="st0" d="M367.5,388.4c-0.6,0.5-1.2,1-1.9,1.6c-0.4,0.4-1,0.8-1.4,1.2c-1.5,1.2-3,2.4-4.5,3.6c-0.1,0.1-0.1,0.1-0.2,0.2
		c-1.5,1.1-3.1,2.3-4.6,3.4c-0.5,0.3-1,0.7-1.5,1c-0.7,0.4-1.3,1-2,1.4c1.6,1.1,2.9,2.1,3.8,3.1c0.9,0.9,1.5,1.8,2.1,2.7
		c1.7,2.3,3.2,4.5,8.3,6.7c5.1,2.3,6.8,7.5,8.6,13c1.3,3.9,2.6,8,5.3,11.9l1.2,1.7c4.2,6,8.5,12.3,13.7,12.3c2,0,4.2-0.9,6.6-2.7
		c2.8-2.1,4.3-4.3,4.5-6.6c0.5-4.7-3.9-10.2-8.3-15.5l-1.3-1.7c-2.9-3.6-6.6-6-10-8.4c-4.8-3.2-9.4-6.4-10.2-11.9
		c-0.8-5.6-2.4-7.6-4.2-9.9c-0.7-0.9-1.4-1.7-2-2.8C368.7,391.8,368.1,390.3,367.5,388.4z"/>
	<path class="st0" d="M392.2,184.3c-0.2,0.1-0.3,0.2-0.4,0.3c-0.2,0.1-0.4,0.2-0.6,0.3c-0.2,0.1-0.3,0.2-0.4,0.3
		c-0.2,0.1-0.3,0.2-0.5,0.3c-0.2,0.1-0.3,0.2-0.3,0.3c-0.2,0.1-0.3,0.2-0.4,0.3c-0.1,0.1-0.3,0.2-0.3,0.3c-0.2,0.1-0.3,0.2-0.4,0.3
		c-0.1,0.1-0.2,0.2-0.3,0.3c-0.1,0.1-0.3,0.2-0.3,0.3c-0.1,0.1-0.2,0.2-0.3,0.3c-0.1,0.1-0.2,0.2-0.3,0.3c-0.1,0.1-0.2,0.2-0.3,0.3
		c-0.1,0.1-0.2,0.2-0.3,0.3c-0.1,0.1-0.2,0.2-0.2,0.3c-0.1,0.1-0.2,0.2-0.3,0.3c-0.1,0.1-0.1,0.2-0.2,0.3c-0.1,0.1-0.2,0.3-0.2,0.3
		c-0.1,0.1-0.1,0.2-0.2,0.3c-0.1,0.1-0.2,0.3-0.2,0.3c-0.1,0.1-0.1,0.2-0.2,0.3s-0.2,0.3-0.2,0.4c0,0.1-0.1,0.2-0.1,0.3
		c-0.1,0.2-0.2,0.3-0.3,0.4c0,0.1-0.1,0.2-0.1,0.3c-0.1,0.3-0.3,0.4-0.3,0.7l-0.3,0.7c-2,4.3-8.3,7.3-12.6,7.3c-2.4,0-3.5-1-4.1-1.7
		c-0.1-0.1-0.6-0.4-1.9-0.4c-2.7,0-7.2,1.6-8.6,5c-1.9,4.6-4.8,4.7-8,4.8c-1.9,0.1-4,0.1-6.8,1.1l-14,5.1c0.3,0.5,0.5,1.1,0.8,1.7
		c0.2,0.4,0.3,0.9,0.5,1.3c1.1,2.7,2.2,5.5,3,8.4c0.1,0.4,0.3,0.9,0.3,1.3c0.2,0.6,0.3,1.2,0.5,1.8l14-5.1c2.8-1,4.5-2.3,5.9-3.5
		c0.2-0.2,0.4-0.3,0.6-0.4c1.4-1,2.8-2,4.7-2c1.2,0,2.4,0.3,3.8,1.1c0.9,0.5,1.9,0.7,3.1,0.7c3.9,0,7.3-2.6,7.8-3.7
		c0-0.1,0.1-0.2,0.1-0.2c0-0.2,0-0.4,0-0.6c0.1-0.7,0.4-1.6,1.3-2.5c2.1-2.3,6.7-4,10.7-4c1.7,0,3.2,0.3,4.5,0.9l0.7,0.3
		c2.3,1,3.8,1.8,6.1,1.8c0.3,0,0.5,0,0.8,0c0.1,0,0.2,0,0.3,0c0.2,0,0.3,0,0.6-0.1c0.1,0,0.3,0,0.3-0.1c0.2,0,0.3-0.1,0.6-0.1
		c0.1,0,0.3-0.1,0.3-0.1c0.2,0,0.4-0.1,0.6-0.1c0.2,0,0.3-0.1,0.4-0.1c0.3-0.1,0.4-0.1,0.7-0.2c0.2,0,0.3-0.1,0.4-0.1
		c0.3-0.1,0.6-0.2,1-0.3c0.1,0,0.2,0,0.3-0.1c0.3-0.1,0.8-0.3,1.2-0.3c-0.1-0.4-0.3-0.9-0.3-1.2c-0.2-0.5-0.3-1-0.4-1.5
		c-0.2-0.8-0.4-1.5-0.7-2.3c-0.2-0.4-0.3-0.9-0.4-1.3c-0.3-0.9-0.5-1.7-0.8-2.5c-0.1-0.3-0.3-0.7-0.3-1c-0.8-2.4-1.7-4.7-2.5-7.1
		c-0.2-0.3-0.3-0.8-0.4-1.1c-0.3-0.8-0.6-1.6-1-2.4c-0.2-0.4-0.3-0.9-0.6-1.4c-0.3-0.7-0.6-1.4-0.9-2.1c-0.2-0.5-0.4-1-0.6-1.5
		c-0.2-0.3-0.3-0.8-0.5-1.1c-0.2,0.1-0.3,0.1-0.4,0.2c-0.3,0.1-0.6,0.3-1,0.3c-0.2,0.1-0.3,0.2-0.5,0.3
		C392.7,184.1,392.4,184.2,392.2,184.3z"/>
	<path class="st1" d="M324.1,213.6c-3.9-8-9-15.1-15.2-21.4c-0.9-0.9-1.8-1.7-2.7-2.6c-3.4-3.1-7.1-6-11-8.6c-1.3-0.9-2.6-1.7-4-2.4
		c-9.8-5.6-20.4-9.1-31.6-10.4c-3.1-0.3-6.3-0.5-9.3-0.5c-3.1,0-6.1,0.2-9.3,0.5c-10.8,1.2-21.1,4.5-30.7,9.8l0,0
		c-4.1,2.3-8,4.9-11.6,7.9c-1.2,1-2.4,2-3.6,3.1c-7.9,7.1-14.2,15.6-18.9,25.1c-2.7,5.6-4.8,11.4-6.2,17.6
		c-1.4,6.1-2.1,12.4-2.1,18.6c0,4.7,0.4,9.6,1.3,14.4l0,0c0.3,1.6,0.6,3.1,1,4.6c1,4.5,2.5,9,4.4,13.3c4.7,11,11.9,21.1,20.8,29
		c4.6,4.2,9.8,7.8,15.2,10.8c5.5,3.1,11.4,5.4,17.4,7.2c1.5,0.4,3,0.8,4.5,1.1c2.5,0.5,5.2,1,7.7,1.3l0,0c2.7,0.3,5.3,0.5,7.9,0.6
		c0.9,0,1.7,0,2.5,0c2.7,0,5.5-0.2,8.3-0.4l0,0c9-0.9,17.6-3.2,25.8-6.9c2.7-1.2,5.3-2.6,8-4.2c5.3-3.1,10.3-7,14.9-11.3
		c8.1-7.8,14.5-16.9,19-27.2l0,0c1-2.2,1.7-4.5,2.5-6.8c1.2-3.6,2.2-7.3,2.8-11.1c0.9-4.9,1.3-9.8,1.3-14.7c0-6.3-0.7-12.7-2.2-18.9
		C328.9,225.1,326.8,219.2,324.1,213.6z M250.1,293.5c-23.9,0-43.4-19.5-43.4-43.4c0-23.9,19.5-43.4,43.4-43.4
		c23.9,0,43.4,19.5,43.4,43.4C293.5,274,274,293.5,250.1,293.5z"/>
	<path class="st0" d="M236.1,92.8c0,0.2,0,0.3,0,0.5c0,0.3,0,0.5,0.1,0.8c0,0.2,0,0.3,0.1,0.5c0,0.3,0.1,0.4,0.1,0.7
		c0,0.2,0.1,0.3,0.1,0.5c0,0.2,0.1,0.3,0.1,0.6c0,0.2,0.1,0.3,0.1,0.4c0,0.2,0.1,0.3,0.1,0.5c0,0.2,0.1,0.3,0.1,0.4s0.1,0.3,0.1,0.4
		s0.1,0.3,0.1,0.3c0.1,0.2,0.1,0.3,0.2,0.4c0.1,0.1,0.1,0.3,0.2,0.3c0.1,0.1,0.1,0.3,0.2,0.3c0.1,0.1,0.1,0.2,0.2,0.3
		c0.1,0.1,0.1,0.3,0.2,0.3c0.1,0.1,0.1,0.2,0.2,0.3c0.1,0.1,0.2,0.2,0.2,0.3c0.1,0.1,0.1,0.2,0.2,0.3c0.1,0.1,0.2,0.2,0.3,0.3
		c0.1,0.1,0.2,0.2,0.2,0.3c0.1,0.1,0.2,0.2,0.3,0.3c0.1,0.1,0.2,0.2,0.2,0.3c0.1,0.1,0.2,0.2,0.3,0.3c0.1,0.1,0.2,0.2,0.3,0.3
		c0.1,0.1,0.2,0.2,0.3,0.3c0.1,0.1,0.2,0.2,0.3,0.3c0.2,0.2,0.3,0.3,0.5,0.5l0.5,0.5c3.1,3.1,3.9,9.3,2.9,13.5
		c-0.8,2.9-2.2,3.8-3.2,4.1c-0.3,0.1-1,1-1.4,3.1c-0.4,2.5-0.2,6.2,2.1,8.3c3.7,3.4,2.8,6.1,1.8,9.1c-0.6,1.8-1.2,3.8-1.2,6.8v14.9
		c0.1,0,0.1,0,0.2,0c1.1-0.1,2.3-0.2,3.4-0.3c0.3,0,0.5,0,0.7,0c1.1-0.1,2.3-0.1,3.4-0.1c1.1,0,2.3,0,3.4,0.1c0.3,0,0.5,0,0.8,0
		c1.1,0.1,2.3,0.1,3.3,0.3c0.1,0,0.1,0,0.2,0v-14.9c0-3-0.7-5-1.2-6.8c-1-3-1.8-5.8,1.8-9.1c2.3-2.1,2.6-5.8,2.1-8.3
		c-0.2-0.8-0.3-1.4-0.5-1.9c-0.3-0.8-0.7-1.1-0.9-1.2c-0.7-0.2-1.5-0.6-2.2-1.7c-0.4-0.6-0.8-1.4-1-2.5c-1-4.1-0.3-10.3,2.9-13.5
		l0.5-0.5c0.2-0.2,0.3-0.3,0.5-0.5c0.1-0.1,0.2-0.2,0.3-0.3c0.1-0.1,0.2-0.2,0.3-0.3c0.1-0.1,0.2-0.2,0.3-0.3
		c0.1-0.1,0.2-0.2,0.3-0.3c0.1-0.1,0.2-0.2,0.2-0.3c0.1-0.1,0.2-0.2,0.3-0.3c0.1-0.1,0.2-0.2,0.2-0.3c0.1-0.1,0.2-0.2,0.3-0.3
		c0.1-0.1,0.1-0.2,0.2-0.3c0.1-0.1,0.2-0.2,0.2-0.3c0.1-0.1,0.1-0.2,0.2-0.3c0.1-0.1,0.1-0.2,0.2-0.3c0.1-0.1,0.1-0.2,0.2-0.3
		c0.1-0.1,0.1-0.3,0.2-0.3c0.1-0.1,0.1-0.3,0.2-0.3c0.1-0.1,0.1-0.3,0.2-0.4c0-0.1,0.1-0.3,0.1-0.3c0.1-0.2,0.1-0.3,0.1-0.4
		s0.1-0.3,0.1-0.4s0.1-0.3,0.1-0.5c0-0.2,0.1-0.3,0.1-0.4s0.1-0.3,0.1-0.6c0-0.2,0.1-0.3,0.1-0.5c0-0.2,0.1-0.4,0.1-0.7
		c0-0.2,0-0.3,0.1-0.5c0-0.3,0-0.5,0.1-0.8c0-0.2,0-0.3,0-0.5c0-0.4,0-0.8,0.1-1.2c0-0.1,0-0.2,0-0.3l0,0c-0.4,0-0.9-0.1-1.3-0.1
		c-0.5,0-1-0.1-1.5-0.1c-0.8-0.1-1.5-0.1-2.2-0.2c-0.5,0-1-0.1-1.6-0.1c-0.7,0-1.3-0.1-2-0.1c-0.6,0-1.2-0.1-1.8-0.1
		c-0.4,0-0.9,0-1.2,0c-1.6,0-3.1,0-4.6,0c-0.4,0-0.9,0-1.3,0c-0.6,0-1.2,0-1.7,0.1c-0.7,0-1.3,0.1-2,0.1c-0.5,0-1,0.1-1.6,0.1
		c-0.8,0-1.5,0.1-2.3,0.2c-0.5,0-1,0.1-1.5,0.1c-0.4,0-0.9,0.1-1.3,0.1c0,0.2,0,0.3,0,0.4C236,92.1,236.1,92.4,236.1,92.8z"/>
	<path class="st0" d="M329.4,120c-0.1,0.2-0.1,0.3-0.1,0.3c0,0.2-0.1,0.3-0.1,0.4c0,0.1-0.1,0.3-0.1,0.3c0,0.1-0.1,0.3-0.1,0.3
		c0,0.1,0,0.3-0.1,0.3c0,0.1,0,0.3-0.1,0.3c0,0.1,0,0.3,0,0.3c0,0.1,0,0.3,0,0.3c0,0.1,0,0.2,0,0.3c0,0.1,0,0.3,0,0.3
		c0,0.1,0,0.2,0,0.3c0,0.2,0,0.3,0,0.4c0,0.1,0,0.2,0,0.3c0,0.2,0,0.3,0.1,0.4c0,0.1,0,0.2,0,0.3c0,0.2,0.1,0.3,0.1,0.5
		c0,0.1,0,0.2,0,0.3c0,0.3,0.1,0.5,0.1,0.8l0.1,0.7c0.6,3.9-1.7,8.3-3.8,10.8c-1,1.2-3.2,3.4-5.6,3.4c-0.4,0-0.9-0.1-1.2-0.2l0,0
		c-0.1,0-0.2,0-0.3,0c-0.9,0.2-2.3,1-3.7,2.7c-1.8,2.2-2.6,4.7-2.2,6.9c1,4.9-1.4,6.6-3.9,8.4c-1.6,1.1-3.3,2.4-5,4.7l-8.8,12
		c0.5,0.3,1,0.7,1.6,1c0.3,0.3,0.8,0.5,1.1,0.7c2.4,1.7,4.9,3.4,7.2,5.2c0.3,0.3,0.7,0.6,1,0.9c0.5,0.4,1,0.8,1.5,1.2l8.8-12
		c1.7-2.4,2.4-4.4,3-6.2c1-3,1.9-5.7,6.9-6.2c3.1-0.3,5.5-3.1,6.6-5.4c1-1.9,0.9-3.1,0.7-3.4c-0.7-0.9-1.2-2.5-0.2-5.2
		c1.6-3.9,5.9-8.5,10.3-9.1l0.8-0.1c0.3,0,0.5-0.1,0.8-0.1c0.1,0,0.2,0,0.3,0c0.2,0,0.3-0.1,0.5-0.1c0.1,0,0.2,0,0.3-0.1
		c0.2,0,0.3-0.1,0.4-0.1c0.1,0,0.2-0.1,0.3-0.1c0.2,0,0.3-0.1,0.3-0.1s0.2-0.1,0.3-0.1c0.1,0,0.3-0.1,0.3-0.1s0.2-0.1,0.3-0.1
		c0.1,0,0.3-0.1,0.3-0.2c0.1,0,0.2-0.1,0.3-0.1c0.1-0.1,0.3-0.1,0.3-0.2c0.1-0.1,0.2-0.1,0.3-0.2c0.1-0.1,0.3-0.1,0.3-0.2
		c0.1-0.1,0.2-0.1,0.3-0.2c0.1-0.1,0.3-0.2,0.3-0.3c0.1-0.1,0.2-0.2,0.3-0.3c0.1-0.1,0.3-0.2,0.3-0.3s0.3-0.2,0.3-0.3
		c0.1-0.1,0.3-0.3,0.3-0.3c0.1-0.1,0.3-0.2,0.3-0.3c0.1-0.1,0.3-0.3,0.4-0.3c0.1-0.1,0.3-0.3,0.3-0.3c0.2-0.2,0.3-0.3,0.4-0.4
		c0.2-0.2,0.3-0.3,0.4-0.4c0.2-0.2,0.3-0.3,0.4-0.5c0.2-0.2,0.3-0.3,0.4-0.5c0.2-0.2,0.3-0.3,0.4-0.5c0.2-0.2,0.3-0.3,0.5-0.6
		c-0.2-0.1-0.3-0.3-0.4-0.3c-1.6-1.3-3.1-2.7-4.7-4c-0.2-0.2-0.4-0.3-0.6-0.5c-3.4-2.7-6.9-5.2-10.5-7.7c-0.3-0.2-0.4-0.3-0.7-0.4
		c-1.7-1.1-3.4-2.3-5.2-3.3c-0.2-0.1-0.3-0.2-0.5-0.3c-0.1,0.2-0.3,0.3-0.3,0.5c-0.2,0.3-0.3,0.5-0.5,0.7c-0.1,0.2-0.3,0.3-0.3,0.5
		c-0.1,0.2-0.3,0.4-0.3,0.6s-0.2,0.3-0.3,0.5c-0.1,0.2-0.2,0.3-0.3,0.5c-0.1,0.2-0.2,0.3-0.3,0.4c-0.1,0.2-0.2,0.3-0.3,0.5
		c-0.1,0.2-0.2,0.3-0.2,0.4c-0.1,0.2-0.2,0.3-0.2,0.4c-0.1,0.2-0.1,0.3-0.2,0.4C329.5,119.7,329.4,119.9,329.4,120z"/>
	<path class="st0" d="M257.4,431.4c-0.6,0-1.3,0.1-1.9,0.1c-0.3,0-0.4,0-0.7,0c-0.6,0-1.1,0-1.7,0c-0.2,0-0.4,0-0.6,0
		c-0.8,0-1.5,0-2.3,0c-1,0-2.2,0-3.3,0c-0.3,0-0.7,0-1,0c-0.8,0-1.6-0.1-2.4-0.1c-0.4,0-0.9,0-1.3-0.1c-0.8,0-1.6-0.1-2.3-0.1
		c-0.4,0-0.9-0.1-1.3-0.1c-0.3,0-0.5,0-0.8-0.1c0.5,1.9,1,3.4,1,4.7c0.1,1.2,0.1,2.4,0,3.4c-0.1,2.8-0.2,5.5,2.4,10.4
		s0.8,10.1-1.2,15.6c-1.4,3.9-2.9,8-3.1,12.7l-0.1,2.1c-0.3,6.8-0.8,13.9,2.5,17.4c1.6,1.7,4.1,2.6,7.6,2.6h0.3
		c3.4,0,5.9-0.8,7.4-2.4c3.3-3.4,3.1-10.5,2.9-17.3l-0.1-2.1c-0.1-4.6-1.5-8.7-2.8-12.7c-1.8-5.5-3.5-10.7-0.8-15.6
		c2.8-4.9,2.7-7.5,2.7-10.3c0-1,0-2.2,0.1-3.4c0.2-1.3,0.6-2.8,1.2-4.7l0,0C257.7,431.4,257.5,431.4,257.4,431.4z"/>
	<path class="st0" d="M77.9,307.4c-0.6-1.8-1.1-3.6-1.7-5.4v-0.1c-0.5-1.8-1-3.8-1.6-5.7c-0.2-0.6-0.3-1.1-0.4-1.7
		c-0.2-0.8-0.4-1.7-0.6-2.4c-1.6,1-3,1.9-4.2,2.4c-1.1,0.4-2.3,0.8-3.3,1c-2.7,0.7-5.2,1.4-9.3,5.4c-3.1,3.1-7.4,3.6-11.2,3.6
		c-1.3,0-2.6-0.1-4.1-0.1c-1.5-0.1-3-0.1-4.5-0.1c-3.3,0-5.9,0.3-8.4,1l-2.1,0.5c-6.6,1.7-13.5,3.4-15.9,7.5c-1.1,2-1.2,4.7-0.3,8
		c2,6.6,5.8,7.5,8.8,7.5c3.8,0,8.6-1.7,13.3-3.2l2-0.7c4.4-1.5,8-4,11.4-6.4c4.1-2.9,8-5.7,12.4-5.7c0.8,0,1.6,0.1,2.3,0.3
		c1.8,0.4,3.4,0.6,4.9,0.6c2.4,0,4-0.5,5.8-1.1c1-0.3,2.1-0.7,3.3-0.9c1-0.2,2-0.3,3.8-0.3c0.3,0,0.7,0,1,0
		c-0.3-0.8-0.5-1.6-0.8-2.3C78.2,308.5,78.1,308,77.9,307.4z"/>
	<path class="st0" d="M136.6,108.4c0.6-0.5,1.3-1,1.9-1.5c0.4-0.3,1-0.7,1.4-1.1c1.6-1.1,3.1-2.4,4.6-3.4l0,0
		c1.6-1.1,3.2-2.3,4.8-3.3c0.5-0.3,1-0.6,1.5-1c0.7-0.4,1.4-1,2.1-1.4c-1.6-1.1-2.8-2.2-3.7-3.1c-0.8-1-1.5-1.8-2.1-2.8
		c-1.6-2.4-3.1-4.5-8.1-7c-5-2.4-6.6-7.7-8.3-13.3c-1.2-4-2.4-8.1-5-12.1l-1.1-1.7c-4-6.2-8.3-12.7-13.5-12.7c-2,0-4.1,0.8-6.4,2.5
		c-2.9,2-4.4,4.2-4.7,6.5c-0.7,4.7,3.7,10.3,7.9,15.7l1.3,1.7c2.8,3.7,6.4,6.2,9.7,8.6c4.7,3.4,9.2,6.6,9.9,12.1
		c0.7,5.6,2.3,7.7,3.9,10c0.6,0.9,1.3,1.7,1.9,2.9C135.4,105.1,136,106.6,136.6,108.4z"/>
	<path class="st0" d="M76.7,196.6c0.2-0.5,0.3-1.1,0.5-1.7c0.6-1.8,1.2-3.8,1.8-5.6l0,0c0.6-1.8,1.3-3.7,2-5.5
		c0.2-0.5,0.4-1,0.6-1.6c0.3-0.8,0.6-1.6,1-2.4c-1.9-0.1-3.5-0.2-4.8-0.5c-1.2-0.3-2.3-0.7-3.2-1c-1.9-0.7-3.7-1.4-6.6-1.4
		c-1.2,0-2.5,0.1-4,0.3c-0.6,0.1-1.1,0.2-1.7,0.2c-4.7,0-8.6-3.1-12.7-6.3c-3.3-2.6-6.6-5.2-11-7l-2-0.8c-4.8-1.9-9.8-3.9-13.7-3.9
		c-2.8,0-6.3,0.8-8.5,7.1c-1.1,3.3-1.2,5.9-0.2,8c2.2,4.3,8.9,6.4,15.5,8.4l2,0.6c4.5,1.4,8.7,1.4,12.9,1.5c5.9,0.1,11.4,0.2,15,4.3
		c3.8,4.2,6.3,5,8.9,5.9c1,0.3,2.1,0.7,3.2,1.2c1.1,0.5,2.4,1.5,4,2.6C76.2,198.2,76.4,197.4,76.7,196.6z"/>
	<path class="st0" d="M149.6,401.3c-1.7-1-3.2-2.2-4.8-3.3l0,0c-1.6-1.1-3.1-2.3-4.7-3.5c-0.4-0.3-1-0.7-1.4-1
		c-0.6-0.5-1.3-1-1.9-1.5c-0.6,1.8-1.1,3.3-1.7,4.5c-0.6,1-1.3,2-1.9,2.9c-1.7,2.3-3.3,4.4-3.9,10c-0.6,5.5-5.2,8.7-9.9,12.1
		c-3.4,2.4-6.9,5-9.7,8.6l-1.3,1.7c-4.2,5.4-8.6,11-7.9,15.7c0.3,2.4,1.9,4.5,4.7,6.5c2.3,1.7,4.5,2.4,6.4,2.4
		c5.3,0,9.5-6.5,13.5-12.7l1.1-1.7c2.5-3.8,3.8-8,5-12.1c1.7-5.6,3.2-10.8,8.2-13.3c5.1-2.4,6.6-4.6,8.1-7c0.6-0.9,1.2-1.8,2-2.8
		c0.9-1,2.1-2,3.7-3.1c-0.7-0.4-1.4-1-2.1-1.4C150.7,401.9,150.2,401.5,149.6,401.3z"/>
</g>
</svg>
